<svg xmlns="http://www.w3.org/2000/svg" width="56" height="20" viewBox="0 0 56 20">
    <g fill="none" fill-rule="evenodd">
        <rect width="56" height="20" fill="#4B68BA" rx="2"/>
        <path fill="#FFF" fill-rule="nonzero" d="M22.896 11.447c0 .259.046.478.14.657.093.18.217.325.371.437.155.11.336.193.544.247.208.054.424.081.646.081.151 0 .313-.013.485-.038s.334-.073.485-.145c.15-.072.276-.17.377-.296.1-.126.15-.286.15-.48a.675.675 0 0 0-.199-.506 1.58 1.58 0 0 0-.522-.323 5.214 5.214 0 0 0-.732-.226c-.273-.065-.55-.137-.83-.216a7.364 7.364 0 0 1-.84-.263 2.887 2.887 0 0 1-.732-.404 1.902 1.902 0 0 1-.523-.62c-.133-.247-.199-.547-.199-.899 0-.395.084-.738.253-1.029.169-.29.39-.533.663-.727.272-.194.581-.337.926-.43a3.94 3.94 0 0 1 1.034-.14c.402 0 .788.044 1.158.134.37.09.698.235.985.436.287.201.515.458.684.77.169.313.253.692.253 1.137h-1.637a1.36 1.36 0 0 0-.145-.571.952.952 0 0 0-.329-.355 1.389 1.389 0 0 0-.468-.184 2.884 2.884 0 0 0-.577-.053c-.136 0-.272.014-.409.043-.136.028-.26.079-.371.15a.935.935 0 0 0-.275.27.723.723 0 0 0-.108.409c0 .15.029.273.086.366.058.094.17.18.34.259.168.079.402.158.7.237.298.079.687.18 1.168.301.144.029.343.081.598.156.255.076.508.196.76.361.25.165.468.386.651.663.183.276.275.63.275 1.06 0 .352-.068.68-.205.98a2.13 2.13 0 0 1-.608.782c-.27.219-.604.39-1.002.511-.399.122-.86.183-1.384.183-.424 0-.835-.052-1.233-.156a3.102 3.102 0 0 1-1.056-.49 2.42 2.42 0 0 1-.727-.85c-.18-.345-.266-.755-.258-1.229h1.637zm5.676-5.137h1.53v2.897h.032c.194-.323.441-.558.743-.706.301-.147.596-.22.883-.22.41 0 .745.055 1.007.167.262.11.469.265.62.463.15.197.256.438.317.721.061.284.092.598.092.943V14h-1.53v-3.145c0-.46-.072-.803-.215-1.029-.144-.226-.399-.339-.765-.339-.416 0-.718.124-.905.372-.186.247-.28.655-.28 1.222V14h-1.53V6.31zm6.322 3.834c.022-.359.112-.657.27-.894.158-.237.359-.427.603-.57.244-.144.519-.247.824-.308.305-.06.612-.091.92-.091.28 0 .564.02.852.059.287.04.549.117.786.232.237.114.43.274.581.479.151.204.227.476.227.813v2.897c0 .252.014.492.043.722.028.23.079.402.15.517H38.6a2.195 2.195 0 0 1-.108-.539 1.993 1.993 0 0 1-.862.528c-.33.1-.668.151-1.012.151-.266 0-.514-.032-.743-.097a1.702 1.702 0 0 1-.604-.301 1.404 1.404 0 0 1-.404-.518 1.748 1.748 0 0 1-.145-.743c0-.316.056-.576.167-.78.111-.205.255-.369.43-.49a1.93 1.93 0 0 1 .604-.275c.226-.061.454-.11.684-.146.23-.036.456-.064.678-.086a4.08 4.08 0 0 0 .593-.097c.172-.043.309-.106.41-.188.1-.083.146-.203.14-.361a.812.812 0 0 0-.082-.393.594.594 0 0 0-.215-.226.847.847 0 0 0-.312-.108 2.556 2.556 0 0 0-.383-.027c-.301 0-.538.065-.71.194-.173.129-.273.344-.302.646h-1.53zm3.533 1.131a.686.686 0 0 1-.242.135c-.097.032-.201.059-.312.08-.112.022-.228.04-.35.054a6.43 6.43 0 0 0-.367.054c-.115.022-.228.05-.339.086a1.003 1.003 0 0 0-.29.146.691.691 0 0 0-.2.231.745.745 0 0 0-.075.356.72.72 0 0 0 .075.344c.05.094.118.167.205.221a.864.864 0 0 0 .301.113c.115.022.233.033.356.033.301 0 .535-.05.7-.151.165-.1.287-.221.366-.361.079-.14.127-.282.145-.425.018-.144.027-.259.027-.345v-.571zm2.714-2.844h1.455v1.034h.021a1.905 1.905 0 0 1 .71-.856c.159-.104.328-.185.507-.242.18-.058.366-.086.56-.086.1 0 .212.018.334.054v1.421a2.938 2.938 0 0 0-.55-.054c-.28 0-.516.047-.71.14-.194.094-.35.221-.469.383-.118.161-.202.35-.253.565-.05.216-.075.45-.075.7V14h-1.53V8.431zm7.939 2.187c-.072-.388-.2-.682-.383-.883-.183-.201-.461-.302-.835-.302a1.33 1.33 0 0 0-.608.124 1.124 1.124 0 0 0-.592.695c-.04.136-.063.258-.07.366h2.488zm-2.488.97c.021.495.147.854.376 1.076.23.223.56.334.991.334.31 0 .575-.077.797-.231.223-.155.36-.318.41-.49h1.346c-.215.667-.546 1.145-.99 1.432-.446.287-.985.431-1.616.431a3.18 3.18 0 0 1-1.185-.21c-.352-.14-.65-.34-.894-.598a2.69 2.69 0 0 1-.566-.926 3.39 3.39 0 0 1-.199-1.185c0-.416.068-.804.205-1.163.136-.36.33-.67.581-.932.252-.262.551-.468.9-.62.348-.15.734-.225 1.158-.225.473 0 .886.091 1.238.274.352.183.641.43.867.738.226.309.39.66.49 1.056.1.395.137.807.108 1.238h-4.017z"/>
        <path fill="#FFFFFE" d="M5.662 4A.662.662 0 0 0 5 4.662v10.676c0 .365.296.662.662.662h5.748v-4.647H9.846V9.542h1.564V8.206c0-1.55.946-2.394 2.329-2.394.662 0 1.231.05 1.397.072v1.62h-.959c-.752 0-.897.357-.897.882v1.156h1.793l-.233 1.811h-1.56V16h3.058a.662.662 0 0 0 .662-.662V4.662A.662.662 0 0 0 16.338 4H5.662z"/>
    </g>
</svg>
