<svg xmlns="http://www.w3.org/2000/svg" width="197" height="117" viewBox="0 0 197 117">
    <g fill="none" fill-rule="evenodd">
        <g fill="#404042">
            <path d="M184.221 55.486h-4.411V44.352h4.411a5.573 5.573 0 0 1 5.566 5.568 5.572 5.572 0 0 1-5.566 5.566zm.589-17.134h-11.5v28.797h6.5v-5.663h5c6.378 0 11.566-5.188 11.566-11.566 0-6.378-5.188-11.568-11.566-11.568zM64.007 55.486h-4.411V44.352h4.411a5.574 5.574 0 0 1 5.567 5.568 5.573 5.573 0 0 1-5.567 5.566zm.589-17.134h-11.5v28.797h6.5v-5.663h5c6.378 0 11.566-5.188 11.566-11.566 0-6.378-5.188-11.568-11.566-11.568zm124.759 41.91v28.799h-6.973V95.889c0-1.098 0-2.195.129-3.358a36.475 36.475 0 0 1-2.583 2.842l-13.43 13.753h-2.712V80.263h6.974v12.913c0 1.228 0 2.39-.129 3.553.968-1.163 1.937-2.196 2.905-3.23l13.108-13.236h2.711zm-50.819 15.174c-.323 3.488-.774 5.618-1.872 7.814h10.911V86.139h-8.134l-.905 9.297zm19.823 7.685v13.3h-6.457v-7.36h-19.628v7.36h-6.457v-13.3h3.615c1.614-2.52 2.196-5.166 2.518-8.847l1.292-14.011h21.114v22.858h4.003zm-44.425-8.46c0-5.487-3.359-8.91-8.33-8.91-4.779 0-8.136 3.423-8.136 8.91 0 5.554 3.357 8.976 8.136 8.976 4.971 0 8.33-3.422 8.33-8.975zm6.779-14.398v28.798h-5.23l-.969-4.067c-2.453 3.098-6.069 4.777-10.396 4.777-8.006 0-13.752-5.94-13.752-15.11 0-8.91 5.746-15.108 13.881-15.108 4.004 0 7.62 1.615 10.138 4.842l1.162-4.132h5.166zm-64.929 23.116c4.909-.517 6.329-3.228 6.846-8.911l1.226-14.205h20.921v28.798h-7.038V86.33h-7.684l-.646 8.59c-.839 9.943-4.261 14.01-12.848 14.59l-.777-6.132zm-10.073-2.906c0-2.066-1.291-3.551-4.133-3.551h-6.649v7.039h6.649c2.842 0 4.133-1.422 4.133-3.488zm-10.782-15.11v6.717h5.875c2.776 0 3.938-1.615 3.938-3.488 0-1.744-1.162-3.228-3.938-3.228h-5.875zm17.82 15.69c0 5.103-3.809 8.008-9.426 8.008H28.084V80.263h14.14c5.489 0 9.234 2.97 9.234 7.684 0 3.164-1.355 5.1-3.486 6.327 2.905.97 4.777 3.294 4.777 6.78zm94.117-50.755h14.205c-.194-4.584-2.906-6.974-6.586-6.974-3.81 0-6.845 2.518-7.619 6.974zm20.856 1.419c0 1.034-.129 2.196-.259 3.358H146.8c.905 4.649 4.521 7.103 9.17 7.103 3.293 0 5.617-.968 7.619-2.713l2.97 4.52c-3.292 2.648-6.779 4.004-11.234 4.004-9.234 0-15.562-6.263-15.562-15.303 0-8.458 6.134-15.11 14.851-15.11 8.135 0 13.108 5.49 13.108 14.14zm-28.735 15.11v.323h-8.072l-10.396-12.268V67.15h-7.038V38.352h7.038V49.78l9.492-11.43h8.007v.26l-11.429 13.688 12.398 14.528zm-51.628-16.53h14.205c-.195-4.583-2.906-6.973-6.586-6.973-3.81 0-6.845 2.518-7.619 6.974zm20.855 1.42c0 1.034-.129 2.196-.259 3.358H87.293c.906 4.649 4.521 7.103 9.17 7.103 3.293 0 5.617-.968 7.619-2.713l2.97 4.52c-3.293 2.648-6.779 4.004-11.234 4.004-9.234 0-15.562-6.263-15.562-15.303 0-8.458 6.134-15.11 14.851-15.11 8.135 0 13.107 5.49 13.107 14.14zm-74.9-7.296h-8.265v-6.07h23.568v6.07h-8.201V67.15h-7.102V44.42zM47.935 0h-35.18C5.712 0 0 5.711 0 12.756s5.71 12.756 12.756 12.756h35.179c7.045 0 12.756-5.71 12.756-12.756C60.69 5.711 54.98 0 47.935 0"/>
        </g>
        <path fill="#50B748" d="M54.456 12.757a6.942 6.942 0 1 0-13.883 0 6.942 6.942 0 0 0 13.883 0"/>
        <path fill="#E9CB1B" d="M37.285 12.757a6.943 6.943 0 1 0-13.884.002 6.943 6.943 0 0 0 13.884-.002"/>
        <path fill="#F16522" d="M20.112 12.757a6.942 6.942 0 1 0-13.884 0 6.942 6.942 0 0 0 13.884 0"/>
    </g>
</svg>
