<?xml version="1.0" encoding="UTF-8"?>
<svg width="56px" height="20px" viewBox="0 0 56 20" version="1.1" xmlns="http://www.w3.org/2000/svg" xmlns:xlink="http://www.w3.org/1999/xlink">
    <!-- Generator: Sketch 55.1 (78136) - https://sketchapp.com -->
    <title>Telegram</title>
    <desc>Created with Sketch.</desc>
    <g id="Index" stroke="none" stroke-width="1" fill="none" fill-rule="evenodd">
        <g id="01-Ze-Desktop-MVP" transform="translate(-764.000000, -2236.000000)">
            <g id="Footer" transform="translate(0.000000, 2161.000000)">
                <g id="Social" transform="translate(620.000000, 75.000000)">
                    <g id="Telegram" transform="translate(144.000000, 0.000000)">
                        <rect id="Background" fill="#139BD0" x="0" y="0" width="56" height="20" rx="2"></rect>
                        <path d="M15.2298774,5.03903733 L4.25490948,9.26949649 C3.89942846,9.40653516 3.92096403,9.9111239 4.28688873,10.0179906 L7.07574557,10.8325995 L8.11654761,14.0993707 C8.22526985,14.440596 8.6624276,14.5440429 8.9154886,14.2884535 L10.3573997,12.8321459 L13.1865547,14.8863012 C13.5327805,15.1376872 14.0258659,14.9509199 14.1137728,14.5351017 L15.9875478,5.67371841 C16.0793081,5.23966167 15.6475883,4.87802489 15.2298774,5.03903733 Z M14.9488533,7.2443572 L9.33284948,11.9482788 C9.27687036,11.9951759 9.24124367,12.0600729 9.23291226,12.1304187 L9.01669238,13.9509909 C9.00963052,14.0103639 8.9219127,14.0182177 8.90318687,13.9611745 L8.01359085,11.2460613 C7.9728463,11.1217537 8.02596895,10.9870746 8.14272768,10.918495 L14.7746475,7.02257266 C14.927152,6.93291188 15.0833063,7.13177392 14.9488533,7.2443572 Z" id="Shape" fill="#FFFFFF" fill-rule="nonzero"></path>
                        <path d="M29.1835938,6.89257812 L26.5703125,6.89257812 L26.5703125,14 L24.8125,14 L24.8125,6.89257812 L22.234375,6.89257812 L22.234375,5.46875 L29.1835938,5.46875 L29.1835938,6.89257812 Z M30.1855469,14 L30.1855469,5.46875 L33.1738281,5.46875 C34.2089896,5.46875 34.9941379,5.66699021 35.5292969,6.06347656 C36.0644558,6.45996292 36.3320312,7.0410118 36.3320312,7.80664062 C36.3320312,8.22461146 36.2246104,8.59277185 36.0097656,8.91113281 C35.7949208,9.22949378 35.4960957,9.46288988 35.1132812,9.61132812 C35.5507834,9.72070367 35.8955066,9.94140459 36.1474609,10.2734375 C36.3994153,10.6054704 36.5253906,11.0117163 36.5253906,11.4921875 C36.5253906,12.3125041 36.2636745,12.9335916 35.7402344,13.3554688 C35.2167943,13.7773459 34.470708,13.9921875 33.5019531,14 L30.1855469,14 Z M31.9433594,10.2851562 L31.9433594,12.5878906 L33.4492188,12.5878906 C33.8632833,12.5878906 34.1865223,12.4892588 34.4189453,12.2919922 C34.6513683,12.0947256 34.7675781,11.8222674 34.7675781,11.4746094 C34.7675781,10.6933555 34.3632853,10.2968751 33.5546875,10.2851562 L31.9433594,10.2851562 Z M31.9433594,9.04296875 L33.2441406,9.04296875 C34.1308638,9.02734367 34.5742188,8.67383158 34.5742188,7.98242188 C34.5742188,7.59570119 34.4619152,7.31738366 34.2373047,7.14746094 C34.0126942,6.97753821 33.6582055,6.89257812 33.1738281,6.89257812 L31.9433594,6.89257812 L31.9433594,9.04296875 Z M37.46875,10.7714844 C37.46875,10.142575 37.5898425,9.58203371 37.8320312,9.08984375 C38.07422,8.59765379 38.4228493,8.21679822 38.8779297,7.94726562 C39.3330101,7.67773303 39.8613251,7.54296875 40.4628906,7.54296875 C41.3183637,7.54296875 42.0165989,7.80468488 42.5576172,8.328125 C43.0986355,8.85156512 43.4003903,9.56249551 43.4628906,10.4609375 L43.4746094,10.8945312 C43.4746094,11.8671924 43.2031277,12.647458 42.6601562,13.2353516 C42.1171848,13.8232451 41.3886764,14.1171875 40.4746094,14.1171875 C39.5605423,14.1171875 38.8310574,13.8242217 38.2861328,13.2382812 C37.7412082,12.6523408 37.46875,11.8554738 37.46875,10.8476562 L37.46875,10.7714844 Z M39.1621094,10.8945312 C39.1621094,11.4960968 39.2753895,11.9560531 39.5019531,12.2744141 C39.7285168,12.592775 40.0527323,12.7519531 40.4746094,12.7519531 C40.8847677,12.7519531 41.205077,12.5947281 41.4355469,12.2802734 C41.6660168,11.9658187 41.78125,11.4628941 41.78125,10.7714844 C41.78125,10.1816377 41.6660168,9.724611 41.4355469,9.40039062 C41.205077,9.07617025 40.8808615,8.9140625 40.4628906,8.9140625 C40.0488261,8.9140625 39.7285168,9.0751937 39.5019531,9.39746094 C39.2753895,9.71972817 39.1621094,10.2187466 39.1621094,10.8945312 Z M46.5449219,6.1015625 L46.5449219,7.66015625 L47.6289062,7.66015625 L47.6289062,8.90234375 L46.5449219,8.90234375 L46.5449219,12.0664062 C46.5449219,12.3007824 46.5898433,12.4687495 46.6796875,12.5703125 C46.7695317,12.6718755 46.941405,12.7226562 47.1953125,12.7226562 C47.3828134,12.7226562 47.5488274,12.7089845 47.6933594,12.6816406 L47.6933594,13.9648438 C47.3613265,14.0664068 47.019533,14.1171875 46.6679688,14.1171875 C45.4804628,14.1171875 44.8750001,13.5175841 44.8515625,12.3183594 L44.8515625,8.90234375 L43.9257812,8.90234375 L43.9257812,7.66015625 L44.8515625,7.66015625 L44.8515625,6.1015625 L46.5449219,6.1015625 Z" id="TBot" fill="#FFFFFF" fill-rule="nonzero"></path>
                    </g>
                </g>
            </g>
        </g>
    </g>
</svg>