<svg xmlns="http://www.w3.org/2000/svg" xmlns:xlink="http://www.w3.org/1999/xlink" width="56" height="20" viewBox="0 0 56 20">
    <defs>
        <text id="b" fill="#333" font-family="HelveticaNeue-Bold, Helvetica Neue" font-size="11" font-weight="bold">
            <tspan x="20" y="14">Tweet</tspan>
        </text>
        <filter id="a" width="103%" height="113.3%" x="-1.5%" y="-3.3%" filterUnits="objectBoundingBox">
            <feOffset dy="1" in="SourceAlpha" result="shadowOffsetOuter1"/>
            <feColorMatrix in="shadowOffsetOuter1" values="0 0 0 0 1 0 0 0 0 1 0 0 0 0 1 0 0 0 0.5 0"/>
        </filter>
    </defs>
    <g fill="none" fill-rule="evenodd">
        <rect width="56" height="20" fill="#FFF" rx="2"/>
        <g fill="#333">
            <use filter="url(#a)" xlink:href="#b"/>
            <use xlink:href="#b"/>
        </g>
        <path fill="#00ACEE" d="M3 13.752a5.89 5.89 0 0 0 4.252-1.15c-1.257-.022-2.317-.825-2.683-1.928a2.964 2.964 0 0 0 1.297-.048c-1.314-.255-2.304-1.377-2.304-2.723v-.035c.388.208.83.333 1.302.348a2.753 2.753 0 0 1-1.278-2.312c0-.509.141-.986.389-1.396a8.25 8.25 0 0 0 5.92 2.902 2.7 2.7 0 0 1-.075-.633C9.82 5.243 11.106 4 12.693 4c.826 0 1.572.337 2.096.877a5.873 5.873 0 0 0 1.824-.674A2.804 2.804 0 0 1 15.35 5.74 5.897 5.897 0 0 0 17 5.302a5.734 5.734 0 0 1-1.433 1.438c.005.119.008.239.008.359 0 3.67-2.889 7.901-8.172 7.901A8.334 8.334 0 0 1 3 13.752z"/>
    </g>
</svg>
