<svg xmlns="http://www.w3.org/2000/svg" width="56" height="20" viewBox="0 0 56 20">
    <g fill="none" fill-rule="evenodd">
        <rect width="56" height="20" fill="#7D3DAF" rx="2"/>
        <g fill="#FFF" fill-rule="nonzero">
            <path d="M13.829 16c-.246-.068-.48-.113-.698-.195-2.256-.85-4.333-1.947-5.977-3.627-.935-.956-1.667-2.035-2.286-3.177-.294-.541-.54-1.104-.793-1.663-.23-.51.109-1.037.465-1.42.335-.361.765-.637 1.231-.84.364-.16.723-.068.989.212.574.606 1.102 1.242 1.529 1.944.263.431.19.959-.286 1.253-.115.071-.22.155-.329.235-.094.071-.183.142-.248.238a.599.599 0 0 0-.048.572c.587 1.465 1.577 2.605 3.201 3.218.26.098.521.213.82.18.502-.052.664-.552 1.016-.813.343-.255.782-.258 1.152-.045.37.212.729.44 1.085.671.35.227.699.448 1.022.706.31.249.417.574.242.911-.32.617-.785 1.13-1.457 1.458-.19.092-.416.122-.63.182-.246-.068.214-.06 0 0zM10.485 4.001c2.688.072 4.895 1.778 5.368 4.32.081.434.11.876.146 1.316.015.185-.095.36-.303.363-.216.002-.313-.17-.327-.355-.027-.366-.047-.733-.1-1.096-.278-1.915-1.874-3.5-3.867-3.84-.3-.051-.607-.065-.911-.095-.192-.02-.444-.03-.486-.259-.036-.191.133-.344.324-.354.051-.002.104 0 .156 0 2.688.072-.052 0 0 0z"/>
            <path d="M14 9.619c-.004.031-.007.105-.026.175-.07.253-.471.285-.564.03a.73.73 0 0 1-.032-.244c0-.534-.122-1.067-.404-1.532a2.932 2.932 0 0 0-1.25-1.12 3.723 3.723 0 0 0-.998-.293c-.15-.024-.302-.039-.453-.059-.183-.024-.281-.135-.272-.308.008-.161.131-.277.315-.267.606.032 1.19.157 1.729.43 1.094.553 1.72 1.427 1.902 2.594.008.053.021.106.026.159.01.13.016.262.027.435-.004.031-.01-.173 0 0zM11.776 10c-.2.003-.307-.104-.328-.282-.014-.124-.026-.25-.056-.37a1.037 1.037 0 0 0-.397-.602 1.05 1.05 0 0 0-.323-.15c-.147-.042-.3-.03-.446-.065-.159-.038-.247-.162-.222-.307.023-.131.155-.234.303-.223.928.064 1.59.528 1.685 1.584.007.075.015.154-.002.225a.235.235 0 0 1-.214.19c-.2.003.091-.007 0 0z"/>
        </g>
        <path fill="#FFF" fill-rule="nonzero" d="M24.873 12.143l2.168-6.674h1.629L25.6 14h-1.436l-3.059-8.531h1.624l2.144 6.674zM31.008 14h-1.424V7.66h1.424V14zm-1.512-7.986c0-.22.07-.4.208-.545.139-.145.337-.217.595-.217.258 0 .457.072.597.217a.75.75 0 0 1 .211.545c0 .215-.07.393-.21.536-.141.142-.34.214-.598.214-.258 0-.456-.072-.595-.214a.738.738 0 0 1-.208-.536zm8.625 4.88c0 .985-.22 1.768-.66 2.35-.439.582-1.043.873-1.813.873-.742 0-1.32-.267-1.734-.803l-.07.686h-1.29V5h1.425v3.27c.41-.485.962-.727 1.658-.727.773 0 1.38.287 1.822.861.441.575.662 1.377.662 2.409v.082zm-1.424-.123c0-.687-.12-1.203-.363-1.546-.242-.344-.594-.516-1.055-.516-.617 0-1.05.27-1.3.809v2.613c.253.55.69.826 1.312.826.445 0 .79-.166 1.031-.498.242-.332.367-.834.375-1.506v-.182zm5.408 3.346c-.902 0-1.633-.284-2.194-.852-.56-.569-.84-1.326-.84-2.27v-.177c0-.632.121-1.198.366-1.696a2.787 2.787 0 0 1 1.028-1.163 2.719 2.719 0 0 1 1.476-.416c.864 0 1.53.275 2.001.826.471.55.706 1.33.706 2.338v.574h-4.142c.043.524.218.938.524 1.242.307.305.693.457 1.157.457.653 0 1.184-.263 1.594-.79l.768.732a2.563 2.563 0 0 1-1.017.882c-.424.209-.9.313-1.427.313zm-.17-5.431c-.39 0-.706.136-.946.41-.24.273-.393.654-.46 1.142h2.713v-.105c-.031-.477-.158-.837-.38-1.081-.223-.244-.532-.366-.926-.366zm7.137.275a3.523 3.523 0 0 0-.58-.047c-.652 0-1.092.25-1.318.75V14H45.75V7.66h1.36l.035.71c.343-.552.82-.827 1.43-.827.202 0 .37.027.503.082l-.006 1.336z"/>
    </g>
</svg>
