<svg xmlns="http://www.w3.org/2000/svg" width="12" height="12" viewBox="0 0 12 12">
    <g fill="#FFF" fill-rule="nonzero">
        <path d="M9.829 12c-.246-.068-.48-.113-.698-.195-2.256-.85-4.333-1.947-5.977-3.627C2.219 7.222 1.487 6.143.868 5 .574 4.46.328 3.897.075 3.338c-.23-.51.109-1.037.465-1.42.335-.361.765-.637 1.231-.84.364-.16.723-.068.989.212.574.606 1.102 1.242 1.529 1.944.263.431.19.959-.286 1.253-.115.071-.22.155-.329.235-.094.071-.183.142-.248.238a.599.599 0 0 0-.048.572C3.965 6.997 4.955 8.137 6.58 8.75c.26.098.521.213.82.18.502-.052.664-.552 1.016-.813.343-.255.782-.258 1.152-.045.37.212.729.44 1.085.671.35.227.699.448 1.022.706.31.249.417.574.242.911-.32.617-.785 1.13-1.457 1.458-.19.092-.416.122-.63.182-.246-.068.214-.06 0 0zM6.485.001c2.688.072 4.895 1.778 5.368 4.32.081.434.11.876.146 1.316.015.185-.095.36-.303.363-.216.002-.313-.17-.327-.355-.027-.366-.047-.733-.1-1.096-.278-1.915-1.874-3.5-3.867-3.84-.3-.051-.607-.065-.911-.095-.192-.02-.444-.03-.486-.259-.036-.191.133-.344.324-.354.051-.002.104 0 .156 0 2.688.072-.052 0 0 0z"/>
        <path d="M10 5.619c-.004.031-.007.105-.026.175-.07.253-.471.285-.564.03a.73.73 0 0 1-.032-.244c0-.534-.122-1.067-.404-1.532a2.932 2.932 0 0 0-1.25-1.12 3.723 3.723 0 0 0-.998-.293c-.15-.024-.302-.039-.453-.059-.183-.024-.281-.135-.272-.308.008-.161.131-.277.315-.267.606.032 1.19.157 1.729.43 1.094.553 1.72 1.427 1.902 2.594.008.053.021.106.026.159.01.13.016.262.027.435-.004.031-.01-.173 0 0zM7.776 6c-.2.003-.307-.104-.328-.282-.014-.124-.026-.25-.056-.37a1.037 1.037 0 0 0-.397-.602 1.05 1.05 0 0 0-.323-.15c-.147-.042-.3-.03-.446-.065-.159-.038-.247-.162-.222-.307.023-.131.155-.234.303-.223.928.064 1.59.528 1.685 1.584.007.075.015.154-.002.225a.235.235 0 0 1-.214.19c-.2.003.091-.007 0 0z"/>
    </g>
</svg>
